# xmcd
#
# Track frame offsets:
#	150
#	14373
#	28970
#	46213
#
# Disc length: 798 seconds
#
# Revision: 0
# Processed by: cddbd v1.5.2PL0 Copyright (c) Steve Scherf et al.
# Submitted via: audiograbber 1.83.01
#
DISCID=2b031c04
DTITLE=E L M Records - E L M Records 001
DYEAR=1900
DGENRE=
TTITLE0=The One You Must Desire  - Dave Brooks
TTITLE1=Girls  - Eden Langworthy
TTITLE2=Only You  - Dwain Messer
TTITLE3=True Love - Bubba Brown
EXTD=
EXTT0=
EXTT1=
EXTT2=
EXTT3=
PLAYORDER=
